<?xml version="1.0" encoding="UTF-8"?>
<svg xmlns="http://www.w3.org/2000/svg" width="43" height="34" viewBox="0 0 43 34" fill="none">
  <path d="M20.425 34C19.2425 34 18.1582 33.7247 17.1721 33.174C16.1859 32.6233 15.4069 31.8987 14.835 31C14.4408 30.3333 14.405 29.6667 14.7275 29C15.05 28.3333 15.6592 28 16.555 28C16.9133 28 17.2717 28.1 17.63 28.3C17.9883 28.5 18.3646 28.8333 18.7588 29.3C18.9379 29.5333 19.1802 29.7087 19.4855 29.826C19.7908 29.9433 20.1039 30.0013 20.425 30C21.0342 30 21.5452 29.808 21.958 29.424C22.3708 29.04 22.5764 28.5653 22.575 28C22.575 27.4333 22.3686 26.958 21.9558 26.574C21.543 26.19 21.0327 25.9987 20.425 26H2.15001C1.54084 26 1.02986 25.808 0.617057 25.424C0.204257 25.04 -0.00142589 24.5653 7.43945e-06 24C7.43945e-06 23.4333 0.206408 22.958 0.619208 22.574C1.03201 22.19 1.54227 21.9987 2.15001 22H20.425C22.2167 22 23.7396 22.5833 24.9938 23.75C26.2479 24.9167 26.875 26.3333 26.875 28C26.875 29.6667 26.2479 31.0833 24.9938 32.25C23.7396 33.4167 22.2167 34 20.425 34ZM2.15001 14C1.54084 14 1.02986 13.808 0.617057 13.424C0.204257 13.04 -0.00142589 12.5653 7.43945e-06 12C7.43945e-06 11.4333 0.206408 10.958 0.619208 10.574C1.03201 10.19 1.54227 9.99867 2.15001 10H29.025C29.9567 10 30.7271 9.71667 31.3363 9.15C31.9454 8.58333 32.25 7.86667 32.25 7C32.25 6.13333 31.9454 5.41667 31.3363 4.85C30.7271 4.28333 29.9567 4 29.025 4C28.4158 4 27.869 4.12533 27.3846 4.376C26.9001 4.62667 26.5152 4.98467 26.23 5.45C25.9433 5.95 25.6029 6.33333 25.2088 6.6C24.8146 6.86667 24.4204 7 24.0263 7C23.2738 7 22.6825 6.75 22.2525 6.25C21.8225 5.75 21.715 5.21667 21.93 4.65C22.4317 3.25 23.3189 2.12533 24.5917 1.276C25.8645 0.426667 27.3423 0.00133333 29.025 0C31.1392 0 32.9222 0.674667 34.3742 2.024C35.8262 3.37333 36.5514 5.032 36.55 7C36.55 8.96667 35.8247 10.6253 34.3742 11.976C32.9237 13.3267 31.1406 14.0013 29.025 14H2.15001ZM38.5925 29.4C37.84 29.7 37.1319 29.6747 36.4683 29.324C35.8047 28.9733 35.4736 28.3987 35.475 27.6C35.475 27.2333 35.6183 26.8753 35.905 26.526C36.1917 26.1767 36.6038 25.868 37.1413 25.6C37.6429 25.3333 38.0278 24.9747 38.2958 24.524C38.5638 24.0733 38.6986 23.5653 38.7 23C38.7 22.1333 38.3954 21.4167 37.7863 20.85C37.1771 20.2833 36.4067 20 35.475 20H2.15001C1.54084 20 1.02986 19.808 0.617057 19.424C0.204257 19.04 -0.00142589 18.5653 7.43945e-06 18C7.43945e-06 17.4333 0.206408 16.958 0.619208 16.574C1.03201 16.19 1.54227 15.9987 2.15001 16H35.475C37.5892 16 39.3722 16.6747 40.8242 18.024C42.2762 19.3733 43.0014 21.032 43 23C43 24.4333 42.5965 25.7167 41.7896 26.85C40.9826 27.9833 39.9169 28.8333 38.5925 29.4Z" fill="#1D1919"></path>
</svg>
