<?xml version="1.0" encoding="UTF-8"?>
<svg xmlns="http://www.w3.org/2000/svg" width="43" height="43" viewBox="0 0 43 43" fill="none">
  <path d="M12.6477 43C8.08661 43 4.3304 40.85 1.9157 37.3563C-1.0356 32.7875 -0.499001 26.6063 2.9889 21.7688C5.40361 18.275 8.62321 16.125 12.6477 15.3187C15.8673 14.5125 18.5503 12.3625 19.3552 9.40625C19.8918 7.25625 21.2333 5.375 22.8431 4.03125C25.2578 1.34375 28.7457 0 32.2336 0C35.1849 0 38.1362 1.075 40.0143 3.225C44.0388 7.525 44.0388 14.5125 39.746 19.35C38.4045 20.9625 36.5264 22.3063 34.38 23.1125C31.1604 24.4563 28.4774 27.4125 27.4042 31.175C26.5993 33.8625 25.2578 36.2812 23.3797 38.1625C20.4284 41.3875 16.4039 43 12.6477 43ZM32.2336 2.6875C29.5506 2.6875 26.8676 3.7625 24.7212 5.9125C23.3797 7.25625 22.5748 8.6 22.0382 10.2125C20.6967 14.2437 17.2088 16.9312 13.1843 18.0063C9.96471 18.5437 7.28171 20.425 5.1353 23.3813C2.184 27.4125 1.9157 32.25 4.3304 36.0125C5.94021 38.7 9.15981 40.3125 12.6477 40.3125C15.8673 40.3125 19.0869 38.9688 21.5016 36.55C23.1114 34.9375 24.4529 32.7875 24.9895 30.6375C26.0627 26.0687 29.2823 22.575 33.5751 20.9625C35.1849 20.425 36.7947 19.0812 37.8679 17.7375C41.0875 13.975 41.3558 8.33125 38.1362 5.10625C36.5264 3.49375 34.38 2.6875 32.2336 2.6875Z" fill="#1D1919"></path>
</svg>
