<?xml version="1.0" encoding="UTF-8"?>
<svg xmlns="http://www.w3.org/2000/svg" width="43" height="43" viewBox="0 0 43 43" fill="none">
  <path d="M41.172 32.431C40.286 30.3404 39.128 28.4357 38.1001 26.7468C37.7479 26.1726 37.4025 25.5943 37.0641 25.0119H5.93642C5.59796 25.5943 5.2526 26.1726 4.90043 26.7468C3.87244 28.4357 2.71446 30.3404 1.82847 32.431C0.60234 35.2968 -0.019918 38.3843 0.000486012 41.501C0.000486012 41.8986 0.15852 42.2798 0.439821 42.561C0.721122 42.8421 1.10265 43 1.50047 43C1.89829 43 2.27982 42.8421 2.56112 42.561C2.84242 42.2798 3.00045 41.8986 3.00045 41.501C3.00045 38.523 3.58045 36.1146 4.41844 34.018C15.2063 34.3118 19.3383 39.7562 20.0783 41.9747C20.1783 42.2724 20.3694 42.5312 20.6245 42.7146C20.8796 42.898 21.186 42.9966 21.5002 42.9966C21.8145 42.9966 22.1208 42.898 22.376 42.7146C22.6311 42.5312 22.8222 42.2724 22.9222 41.9747C23.6622 39.7562 27.7942 34.3118 38.5821 34.02C39.5374 36.3976 40.0191 38.9389 40 41.501C40 41.8986 40.1581 42.2798 40.4394 42.561C40.7207 42.8421 41.1022 43 41.5 43C41.8978 43 42.2794 42.8421 42.5607 42.561C42.842 42.2798 43 41.8986 43 41.501C43 37.8734 42.24 34.9453 41.172 32.431ZM6.88041 0.939923C6.7242 0.574167 6.42899 0.285406 6.05974 0.137163C5.69048 -0.01108 5.27742 -0.00666085 4.91143 0.149448C4.54544 0.305557 4.25649 0.600568 4.10815 0.969582C3.95981 1.3386 3.96423 1.75139 4.12044 2.11714L4.12844 2.13713L4.16044 2.20908L4.28044 2.50488C4.94615 4.18281 5.54133 5.88784 6.06442 7.61549C7.05041 10.8793 8.0004 14.9986 8.0004 18.6602C7.99497 19.8057 7.78641 20.9412 7.3844 22.0139H35.6161C35.2141 20.9412 35.0055 19.8057 35.0001 18.6602C35.0001 14.9986 35.9501 10.8793 36.9361 7.61549C37.4593 5.88788 38.0545 4.18286 38.7201 2.50488L38.84 2.20908L38.87 2.13713L38.878 2.11914V2.11514C38.9601 1.93323 39.005 1.73676 39.0101 1.53728C39.0152 1.33779 38.9804 1.13929 38.9077 0.953426C38.8351 0.76756 38.726 0.598066 38.5869 0.454884C38.4478 0.311702 38.2815 0.197714 38.0978 0.119604C37.914 0.0414947 37.7165 0.00083621 37.5168 1.27635e-05C37.3171 -0.000810683 37.1193 0.0382177 36.9349 0.114809C36.7505 0.1914 36.5833 0.304013 36.443 0.446043C36.3028 0.588073 36.1923 0.756661 36.1181 0.941922C36.1181 0.941922 36.1201 0.939923 37.5001 1.52753L36.1181 0.941922L36.1161 0.949916L36.1061 0.973901L36.0701 1.05984L35.9361 1.38563C35.2371 3.14676 34.6126 4.93649 34.0641 6.75007C33.1021 9.93795 32.1101 14.1012 32.0081 18.0166H10.9924C10.8924 14.0992 9.89837 9.93795 8.93639 6.75007C8.38778 4.93653 7.76324 3.14681 7.06441 1.38563L6.93041 1.05984L6.89441 0.973901L6.88441 0.949916L6.88241 0.94392L6.88041 0.939923Z" fill="#1D1919"></path>
</svg>
