<svg width="43" height="41" viewBox="0 0 43 41" fill="none" xmlns="http://www.w3.org/2000/svg">
<path d="M38.4737 41C37.9079 41 37.3798 40.8861 36.8895 40.6583C36.3991 40.4306 36.0031 40.1214 35.7013 39.7309C31.1373 39.0151 27.1111 37.2579 23.6228 34.4595C20.1346 31.6611 17.6919 28.2119 16.2947 24.1119C12.6737 25.5762 9.80702 27.7323 7.69474 30.5801C5.58246 33.428 4.52632 36.5759 4.52632 40.0238H0C0 35.6635 1.38656 31.6936 4.15968 28.1143C6.93281 24.5349 10.6384 21.8992 15.2763 20.2071C14.4842 16.4651 14.4178 13.0894 15.0772 10.0801C15.7365 7.07087 17.1231 4.63821 19.2368 2.78214C19.3123 2.00119 19.6706 1.34259 20.3118 0.806333C20.9531 0.270079 21.7263 0.00130159 22.6316 0C23.5746 0 24.3765 0.285048 25.0373 0.855143C25.6982 1.42524 26.0278 2.11638 26.0263 2.92857C26.0263 3.74206 25.6959 4.43386 25.035 5.00395C24.3742 5.57405 23.5731 5.85844 22.6316 5.85714H22.4053C22.3298 5.85714 22.2355 5.84087 22.1224 5.80833C21.2925 6.62182 20.6325 7.62275 20.1421 8.81109C19.6518 9.99944 19.3311 11.3251 19.1803 12.7881C19.9346 12.1373 20.812 11.5757 21.8123 11.1032C22.8126 10.6307 23.9155 10.265 25.121 10.006C26.2526 9.74563 27.4695 9.57448 28.7715 9.49248C30.0736 9.41047 31.4405 9.41894 32.8724 9.51786C33.1741 9.25754 33.5136 9.07011 33.8908 8.95557C34.268 8.84103 34.664 8.78441 35.0789 8.78571C36.0219 8.78571 36.8238 9.07076 37.4847 9.64086C38.1455 10.211 38.4752 10.9021 38.4737 11.7143C38.4737 12.5278 38.1433 13.2196 37.4824 13.7897C36.8216 14.3598 36.0204 14.6442 35.0789 14.6429C34.5509 14.6429 34.0319 14.5368 33.5219 14.3246C33.0119 14.1125 32.6068 13.8118 32.3066 13.4226C31.0618 13.3575 29.8646 13.366 28.7149 13.448C27.5653 13.53 26.537 13.7005 25.6303 13.9595C24.1592 14.3825 22.9997 15.0008 22.1518 15.8143C21.3039 16.6278 20.766 17.669 20.5382 18.9381C21.5943 18.7754 22.4905 18.67 23.2268 18.6218C23.9631 18.5737 25.5752 18.5489 28.0632 18.5476C28.3649 18.2222 28.733 17.9782 29.1676 17.8155C29.6021 17.6528 30.0638 17.5714 30.5526 17.5714C31.4956 17.5714 32.2975 17.8565 32.9584 18.4266C33.6192 18.9967 33.9489 19.6878 33.9474 20.5C33.9474 21.3135 33.6169 22.0053 32.9561 22.5754C32.2953 23.1455 31.4941 23.4299 30.5526 23.4286C30.0623 23.4286 29.5998 23.3472 29.1653 23.1845C28.7308 23.0218 28.3634 22.7778 28.0632 22.4524C25.6868 22.4524 24.1215 22.4771 23.3671 22.5266C22.6127 22.576 21.764 22.6815 20.821 22.8429C21.3114 23.9492 22.2732 24.7952 23.7066 25.3809C25.1399 25.9667 27.007 26.2921 29.3079 26.3571C30.4017 26.4222 31.5809 26.406 32.8452 26.3083C34.1096 26.2107 35.3822 26.0643 36.6632 25.869C36.9649 25.4135 37.3798 25.0556 37.9079 24.7952C38.436 24.5349 39.0018 24.4048 39.6053 24.4048C40.5482 24.4048 41.3502 24.6898 42.011 25.2599C42.6718 25.83 43.0015 26.5211 43 27.3333C43 28.1468 42.6696 28.8386 42.0087 29.4087C41.3479 29.9788 40.5467 30.2632 39.6053 30.2619C39.2281 30.2619 38.8788 30.2131 38.5574 30.1155C38.236 30.0179 37.9252 29.8714 37.625 29.6762C36.3425 29.8714 35.088 30.0263 33.8614 30.1409C32.6347 30.2554 31.4752 30.312 30.3829 30.3107C29.289 30.3107 28.2518 30.2619 27.271 30.1643C26.2903 30.0667 25.3662 29.9202 24.4987 29.725C25.932 31.3194 27.6769 32.662 29.7334 33.7528C31.7898 34.8435 33.9489 35.5672 36.2105 35.9238C36.5123 35.6635 36.8616 35.4683 37.2584 35.3381C37.6552 35.2079 38.0603 35.1429 38.4737 35.1429C39.4167 35.1429 40.2186 35.4279 40.8794 35.998C41.5403 36.5681 41.8699 37.2592 41.8684 38.0714C41.8684 38.8849 41.538 39.5767 40.8772 40.1468C40.2163 40.7169 39.4152 41.0013 38.4737 41Z" fill="#1D1919"/>
</svg>
