<svg width="43" height="40" viewBox="0 0 43 40" fill="none" xmlns="http://www.w3.org/2000/svg">
<path d="M21.5 6.65297L20.404 7.67697C20.5443 7.82715 20.714 7.94689 20.9026 8.02876C21.0911 8.11062 21.2945 8.15287 21.5 8.15287C21.7055 8.15287 21.9089 8.11062 22.0974 8.02876C22.286 7.94689 22.4557 7.82715 22.596 7.67697L21.5 6.65297ZM16.368 33.097C13.468 30.745 10.084 27.659 7.436 24.281C4.758 20.867 3 17.361 3 14.141H0C0 18.375 2.26 22.545 5.074 26.133C7.918 29.759 11.494 33.005 14.478 35.427L16.368 33.097ZM3 14.141C3 8.33097 5.536 4.74097 8.672 3.51097C11.802 2.28497 16.18 3.16097 20.404 7.67697L22.596 5.62897C17.82 0.520967 12.198 -1.09103 7.578 0.716967C2.964 2.52497 0 7.48897 0 14.141H3ZM28.52 35.425C31.506 33.003 35.082 29.757 37.926 26.131C40.74 22.543 43 18.373 43 14.137H40C40 17.361 38.24 20.865 35.564 24.279C32.916 27.657 29.532 30.743 26.632 33.095L28.52 35.425ZM43 14.137C43 7.48697 40.036 2.52297 35.42 0.716967C30.8 -1.09303 25.18 0.516967 20.404 5.62697L22.596 7.67697C26.82 3.16097 31.198 2.28297 34.328 3.50897C37.464 4.73697 40 8.32897 40 14.137H43ZM14.478 35.427C17.018 37.491 18.784 39.005 21.5 39.005V36.005C20.054 36.005 19.154 35.357 16.368 33.097L14.478 35.427ZM26.632 33.095C23.846 35.355 22.946 36.005 21.5 36.005V39.005C24.216 39.005 25.982 37.491 28.522 35.427L26.632 33.095Z" fill="#1D1919"/>
<path d="M34.5 13.5049H30.5M30.5 13.5049H26.5M30.5 13.5049V9.50488M30.5 13.5049V17.5049" stroke="#1D1919" stroke-width="1.76786" stroke-linecap="round"/>
</svg>
