<svg width="43" height="57" viewBox="0 0 43 57" fill="none" xmlns="http://www.w3.org/2000/svg">
<path d="M42.6818 51.5211C42.6743 51.5 42.6653 51.4795 42.6549 51.4597L31.543 27.6622L36.5516 19.7559C36.5615 19.7417 36.5705 19.727 36.5785 19.7117C36.9429 19.1008 37.1353 18.4019 37.1353 17.6897C37.1353 16.9774 36.9429 16.2785 36.5785 15.6676C36.5565 15.6283 36.5297 15.589 36.5052 15.5522L31.2718 8.03405V1.96552C31.2718 1.44423 31.0658 0.944293 30.6993 0.575687C30.3327 0.207081 29.8356 0 29.3172 0C28.7988 0 28.3016 0.207081 27.9351 0.575687C27.5685 0.944293 27.3626 1.44423 27.3626 1.96552V7.96526L26.0774 9.5819C25.5281 10.2723 24.8313 10.8297 24.0388 11.2127C23.2462 11.5958 22.3781 11.7946 21.4988 11.7946C20.6194 11.7946 19.7514 11.5958 18.9588 11.2127C18.1662 10.8297 17.4695 10.2723 16.9201 9.5819L15.635 7.96526V1.96552C15.635 1.44423 15.429 0.944293 15.0625 0.575687C14.6959 0.207081 14.1988 0 13.6804 0C13.162 0 12.6648 0.207081 12.2983 0.575687C11.9317 0.944293 11.7258 1.44423 11.7258 1.96552V8.03405L6.49233 15.5522C6.4679 15.589 6.44102 15.6283 6.41903 15.6676C6.05469 16.2785 5.86223 16.9774 5.86223 17.6897C5.86223 18.4019 6.05469 19.1008 6.41903 19.7117C6.4271 19.727 6.43607 19.7417 6.44591 19.7559L11.4546 27.6622L0.342671 51.4597C0.332251 51.4795 0.323269 51.5 0.315795 51.5211C0.0611615 52.1189 -0.0420214 52.7708 0.0154911 53.4186C0.0730036 54.0663 0.289415 54.6896 0.645335 55.2325C1.00125 55.7755 1.48556 56.2211 2.05487 56.5296C2.62417 56.8381 3.26068 56.9997 3.90737 57H39.0902C39.7371 57.0001 40.3739 56.8388 40.9435 56.5305C41.5131 56.2222 41.9978 55.7765 42.354 55.2335C42.7102 54.6905 42.9268 54.0671 42.9845 53.4192C43.0421 52.7713 42.9389 52.1191 42.6842 51.5211H42.6818ZM9.77117 17.6897L13.7854 11.9331L13.8661 12.0363C14.7816 13.1877 15.943 14.1171 17.2643 14.7559C18.5855 15.3946 20.0328 15.7263 21.4988 15.7263C22.9648 15.7263 24.412 15.3946 25.7333 14.7559C27.0545 14.1171 28.2159 13.1877 29.1315 12.0363L29.2121 11.9331L33.2264 17.6897L28.247 25.5517H14.753L9.77117 17.6897ZM3.90737 53.069L14.9191 29.4828H28.0736L39.0902 53.069H3.90737Z" fill="#1D1919"/>
</svg>
